<?xml version="1.0" encoding="utf-8"?>
<!-- Generator: Adobe Illustrator 22.0.1, SVG Export Plug-In . SVG Version: 6.00 Build 0)  -->
<svg version="1.1" id="Layer_1" xmlns="http://www.w3.org/2000/svg" xmlns:xlink="http://www.w3.org/1999/xlink" x="0px" y="0px"
	 viewBox="0 0 400 400" style="enable-background:new 0 0 400 400;" xml:space="preserve">
<style type="text/css">
	.st0{fill:#3D3C3D;}
</style>
<g>
	<path class="st0" d="M242.243,269.774c-9.586-7.24-18.034-18.826-30.701-20.635c-1.114-0.159-10.051,3.366-10.631,3.595
		c-0.579-0.229-9.517-3.754-10.631-3.595c-12.667,1.81-21.116,13.395-30.701,20.635c-6.779,5.12-14.825,7.404-23.05,4.544
		c1.447,1.794,3.062,3.918,4,4.912c1.499,1.589,3.15,3.058,5.017,4.204c4.017,2.467,8.783,2.81,13.319,1.806
		c7.74-1.714,14.442-6.23,21.267-10.024c3.082-1.714,6.258-3.379,9.61-4.505c2.718-0.913,5.59-1.266,8.449-1.56
		c1.809-0.186,3.632-0.186,5.441,0c2.859,0.294,5.731,0.647,8.449,1.56c3.352,1.126,6.528,2.791,9.61,4.505
		c6.825,3.795,13.526,8.31,21.266,10.024c4.536,1.005,9.302,0.661,13.319-1.806c1.866-1.146,3.518-2.615,5.017-4.204
		c0.938-0.994,2.552-3.119,4-4.912C257.068,277.178,249.022,274.894,242.243,269.774z"/>
	<path class="st0" d="M199.981,75.124c-68.925,0-125,56.075-125,125s56.075,125,125,125s125-56.075,125-125
		S268.906,75.124,199.981,75.124z M199.981,309.215c-60.153,0-109.091-48.939-109.091-109.091
		c0-60.153,48.938-109.091,109.091-109.091s109.091,48.938,109.091,109.091C309.072,260.276,260.134,309.215,199.981,309.215z"/>
	<path class="st0" d="M199.574,223.529c13.06,0.611,23.879-9.837,23.879-22.763v-18.192c0-2.54-2.059-4.6-4.6-4.6h-0.282
		c-2.54,0-4.6,2.059-4.6,4.6v17.664c0,7.114-5.354,13.363-12.454,13.809c-7.725,0.486-14.165-5.66-14.165-13.281v-18.192
		c0-2.54-2.059-4.6-4.6-4.6h-0.282c-2.54,0-4.6,2.059-4.6,4.6v17.472C177.872,212.336,187.297,222.955,199.574,223.529z"/>
	<path class="st0" d="M270.449,177.974h-17.472c-12.291,0-22.91,9.425-23.484,21.702c-0.611,13.06,9.837,23.879,22.763,23.879
		h18.192c2.54,0,4.6-2.059,4.6-4.6v-0.282c0-2.54-2.059-4.6-4.6-4.6l-17.664,0c-7.114,0-13.363-5.354-13.809-12.454
		c-0.486-7.724,5.66-14.164,13.281-14.164h18.192c2.54,0,4.6-2.059,4.6-4.6v-0.282C275.048,180.033,272.989,177.974,270.449,177.974
		z"/>
	<path class="st0" d="M170.494,235.022v-34.256v-8.254v-9.938c0-2.54-2.059-4.6-4.6-4.6h-0.282c-2.54,0-4.6,2.059-4.6,4.6v9.938
		v7.726c0,7.114-5.354,13.363-12.454,13.809c-7.724,0.486-14.165-5.66-14.165-13.281v-18.192c0-2.54-2.059-4.6-4.6-4.6h-0.282
		c-2.54,0-4.6,2.059-4.6,4.6v17.472c0,12.291,9.425,22.91,21.702,23.484c5.387,0.252,10.376-1.398,14.398-4.307v15.271
		c0,7.114-5.354,13.363-12.454,13.809c-7.724,0.486-14.165-5.66-14.165-13.281v-1.146c0-2.54-2.059-4.6-4.6-4.6h-0.282
		c-2.54,0-4.6,2.059-4.6,4.6v0.426c0,12.291,9.425,22.91,21.702,23.484C159.675,258.396,170.494,247.949,170.494,235.022z"/>
</g>
</svg>
